<?xml version="1.0" standalone="no"?>
<!DOCTYPE svg PUBLIC "-//W3C//DTD SVG 20010904//EN"
 "http://www.w3.org/TR/2001/REC-SVG-20010904/DTD/svg10.dtd">
<svg version="1.0" xmlns="http://www.w3.org/2000/svg"
 width="72.000000pt" height="72.000000pt" viewBox="0 0 72.000000 72.000000"
 preserveAspectRatio="xMidYMid meet">
<metadata>
Created by potrace 1.15, written by Peter Selinger 2001-2017
</metadata>
<g transform="translate(0.000000,72.000000) scale(0.100000,-0.100000)"
fill="#000000" stroke="none">
<path d="M243 620 c-149 -73 -211 -234 -145 -375 53 -111 148 -174 265 -175
113 0 204 57 256 162 73 145 13 311 -140 389 -80 40 -151 40 -236 -1z m157
-175 l0 -55 50 0 50 0 0 -35 0 -35 -50 0 -50 0 0 -55 c0 -54 0 -55 -30 -55
-30 0 -30 1 -30 55 l0 55 -55 0 -55 0 0 35 0 35 55 0 55 0 0 55 c0 54 0 55 30
55 30 0 30 -1 30 -55z"/>
</g>
</svg>
